<svg xmlns="http://www.w3.org/2000/svg" xmlns:xlink="http://www.w3.org/1999/xlink" width="26" height="26" viewBox="0 0 26 26"><defs><path id="q8ysa" d="M369.85 711.85l1.52-1.52-5.42-5.41-1.95-8.67h-2.17V706c0 .65.22 1.08.65 1.52 0 0 .22.21.44.21zM354.9 696.9a11.8 11.8 0 0 1 9.1-3.9c3.68 0 6.72 1.3 9.1 3.9a11.8 11.8 0 0 1 3.9 9.1c0 3.68-1.3 6.72-3.9 9.1a11.8 11.8 0 0 1-9.1 3.9 11.8 11.8 0 0 1-9.1-3.9c-2.38-2.6-3.9-5.42-3.9-9.1 0-3.68 1.3-6.72 3.9-9.1z"/></defs><g><g transform="translate(-351 -693)"><use fill="#fff" xlink:href="#q8ysa"/></g></g></svg>